<?xml version="1.0" standalone="no"?>
<!DOCTYPE svg PUBLIC "-//W3C//DTD SVG 20010904//EN"
 "http://www.w3.org/TR/2001/REC-SVG-20010904/DTD/svg10.dtd">
<svg version="1.0" xmlns="http://www.w3.org/2000/svg"
 width="300.000000pt" height="300.000000pt" viewBox="0 0 300.000000 300.000000"
 preserveAspectRatio="xMidYMid meet">
<metadata>
Created by potrace 1.10, written by Peter Selinger 2001-2011
</metadata>
<g transform="translate(0.000000,300.000000) scale(0.100000,-0.100000)"
fill="#000000" stroke="none">
<path d="M944 2046 c-3 -14 -10 -26 -15 -26 -5 0 -9 -9 -9 -20 0 -38 28 -21
35 21 8 46 0 65 -11 25z"/>
<path d="M828 1983 c-8 -10 -29 -42 -47 -70 -18 -29 -37 -50 -43 -47 -5 4 -25
-8 -43 -26 -27 -26 -34 -41 -33 -69 1 -45 23 -71 59 -71 20 0 39 -11 63 -37
31 -34 36 -36 60 -25 33 15 33 29 0 63 -25 26 -25 28 -8 37 11 5 38 13 62 17
60 10 75 28 70 85 -5 53 -46 119 -90 144 -32 20 -32 20 -50 -1z m-22 -97 c-20
-31 -40 -56 -46 -56 -15 0 -13 5 20 53 17 25 30 49 30 54 0 5 6 15 13 22 10
10 13 9 15 -3 2 -8 -13 -40 -32 -70z m75 73 c40 -21 100 -139 71 -139 -15 0
-54 48 -44 54 5 3 14 -6 21 -21 6 -14 14 -23 17 -20 9 9 -57 96 -78 102 -10 4
-18 13 -18 21 0 17 5 17 31 3z m10 -159 c-50 -6 -58 -10 -113 -53 -30 -24 -39
-27 -57 -18 -27 15 -26 19 3 46 20 19 26 20 42 8 26 -19 40 -16 21 5 -22 25
-21 39 3 45 11 3 27 22 36 42 l15 37 48 -53 49 -54 -47 -5z m-151 28 c0 -12
-41 -58 -52 -58 -16 0 -7 34 13 57 21 22 39 23 39 1z m110 -159 c0 -21 -36
-18 -59 5 -21 21 -22 27 -11 41 12 14 16 13 42 -11 15 -15 28 -31 28 -35z"/>
<path d="M1020 1980 c0 -5 -6 -7 -12 -5 -7 2 -21 -6 -30 -19 -25 -34 4 -30 39
6 15 15 21 28 15 28 -7 0 -12 -4 -12 -10z"/>
<path d="M1000 1890 c0 -12 22 -27 53 -34 16 -4 27 -2 27 4 0 5 -9 10 -20 10
-11 0 -20 4 -20 9 0 5 -9 11 -20 14 -11 3 -20 2 -20 -3z"/>
<path d="M902 1672 c-9 -7 -12 -45 -10 -158 l3 -149 30 0 c30 0 30 0 33 63 l3
62 59 0 60 0 0 -59 c0 -65 8 -76 46 -67 l24 6 0 150 0 150 -24 6 c-38 9 -46
-2 -46 -67 l0 -59 -60 0 -60 0 0 59 c0 44 -4 60 -16 65 -20 8 -26 7 -42 -2z
m216 -147 c3 -36 -3 -41 -27 -26 -12 8 -13 14 -3 35 16 36 27 32 30 -9z m-168
-19 c-18 -23 -30 -20 -30 7 0 32 11 40 29 23 12 -12 12 -18 1 -30z"/>
<path d="M1183 1674 c-10 -4 -13 -45 -13 -155 l0 -149 26 -6 c14 -4 30 -2 35
3 5 5 8 73 7 159 -3 141 -4 149 -23 151 -11 1 -26 -1 -32 -3z"/>
<path d="M1283 1673 c-17 -6 -19 -298 -2 -308 5 -4 21 -4 35 -1 20 5 24 12 24
46 0 39 1 40 33 40 30 0 36 -5 53 -42 21 -47 39 -56 69 -35 18 14 18 15 -2 65
-18 44 -19 53 -7 63 19 16 18 99 -2 128 -9 13 -32 29 -50 37 -32 13 -125 18
-151 7z m47 -53 c-11 -21 -22 -25 -33 -13 -9 9 12 33 30 33 11 0 11 -4 3 -20z
m98 -48 c5 -33 -15 -52 -54 -52 -33 0 -34 1 -34 41 l0 40 43 -3 c35 -3 43 -7
45 -26z m-93 -72 c17 -19 17 -20 -6 -39 -28 -23 -26 -23 -33 13 -9 48 8 60 39
26z m117 -16 c-3 -25 -7 -32 -13 -23 -5 8 -9 10 -9 5 0 -6 -5 -5 -12 2 -9 9
-7 16 7 32 26 28 32 25 27 -16z"/>
<path d="M1532 1672 c-9 -6 -12 -45 -10 -158 l3 -149 115 0 115 0 0 35 0 35
-82 3 c-74 2 -83 5 -83 22 0 16 9 19 56 22 64 3 88 23 68 56 -8 12 -25 17 -65
18 -47 1 -54 4 -57 22 -3 20 2 21 80 24 l83 3 0 35 0 35 -105 3 c-58 1 -111
-2 -118 -6z m35 -99 c-4 -3 3 -17 15 -30 21 -22 21 -23 3 -43 -19 -21 -41 -28
-30 -10 4 6 1 17 -5 25 -14 17 -5 65 12 65 6 0 8 -3 5 -7z m13 -171 c-27 -4
-32 0 -24 22 6 16 8 16 26 -1 20 -18 20 -18 -2 -21z"/>
<path d="M1792 1672 c-9 -7 -12 -45 -10 -158 l3 -149 105 0 c103 0 105 0 108
24 5 34 -15 43 -85 36 l-63 -7 0 125 c0 105 -3 126 -16 131 -20 8 -26 7 -42
-2z"/>
<path d="M2016 1664 c-9 -8 -16 -18 -16 -22 0 -3 23 -39 52 -80 47 -69 51 -79
49 -127 -2 -58 12 -79 51 -73 21 3 23 9 26 62 3 51 9 68 53 132 27 40 49 80
49 89 0 19 -47 42 -60 29 -5 -5 -24 -35 -43 -67 l-35 -57 -38 65 c-40 67 -59
78 -88 49z m136 -123 c11 6 22 8 26 5 3 -3 0 -6 -6 -6 -7 0 -12 -11 -12 -24 0
-37 -17 -40 -35 -7 -18 36 -19 49 -3 33 8 -8 17 -8 30 -1z"/>
</g>
</svg>
